<?xml version="1.0" encoding="utf-8"?>
<!-- Generator: Adobe Illustrator 23.0.1, SVG Export Plug-In . SVG Version: 6.00 Build 0)  -->
<svg version="1.1" id="Layer_1" xmlns="http://www.w3.org/2000/svg" xmlns:xlink="http://www.w3.org/1999/xlink" x="0px" y="0px"
	 width="1000px" height="1000px" viewBox="0 0 1000 1000" style="enable-background:new 0 0 1000 1000;" xml:space="preserve">
<style type="text/css">
	.st0{fill:#DBDBDB;}
	.st1{fill:#C4C2C2;}
	.st2{fill:#C10000;}
	.st3{fill:#191919;}
	.st4{fill:#BF0000;}
</style>
<g>
	<ellipse class="st0" cx="136.3" cy="744.6" rx="32.1" ry="31.8"/>
	<path class="st1" d="M136.3,687.9c-31.7,0-57.3,25.4-57.3,56.8s25.7,56.8,57.3,56.8c31.7,0,57.3-25.4,57.3-56.8
		S168,687.9,136.3,687.9z M136.3,776.4c-17.7,0-32.1-14.2-32.1-31.8s14.4-31.8,32.1-31.8c17.7,0,32.1,14.2,32.1,31.8
		S154,776.4,136.3,776.4z"/>
	<path class="st2" d="M800.4,583.8c-17.3-38.9-41-75.8-66.6-111.2c-9.4-13.1-19.2-25.9-29.3-38.4c-1.5-1.8-19.8-21.6-19.1-22.8
		c6.9-12.3,11.7-26.4,14.4-43.1c5.5-33.4-16.9-56.6-37.1-73.3c-10.7-8.8-18.3-20.8-22.5-28.7c-2.4-4.6-8-6.6-12.8-4.7l-10.7,4.2
		c-5.7,2.2-8.2,8.8-5.3,14.2c5.5,10.4,15.8,26.8,31,39.4c20.6,17,28.2,29.7,25.9,43.8c-2.8,17.2-8.2,30.5-16.4,40.9
		c-8.6,10.6-21,19-37.8,25.5c-13.3,5.2-27.5,0.6-48.7-15.8c-15.6-12.1-34-18.5-45.4-21.6c-5.9-1.6-11.8,2.2-12.7,8.2l-0.8,5.1
		l-1.1,6.3c-0.8,5.1,2.2,10,7.3,11.5c8.6,2.4,22.1,7.2,33.2,15.8c20.6,16,48.4,32.7,80.1,20.4c15.7-6.1,28.6-13.7,39.1-22.9
		c17.9,20.9,64.2,77.9,101,148.5c50.7,97,35.9,215.6-38.9,295.9c-13.1,14.1-26.4,25.4-39.2,31.8c-79.9,40.4-160.3,36.6-238.8-11.2
		c-39.2-23.9-68.3-53.3-84-71.1c20.7-4.2,62.2-13.4,106-27.9c75.1-24.9,168.3-65.9,176.3-155.5c4.6-51-24-100.9-70.7-122.9
		c-16.9-7.9-34.8-11.9-53.3-11.9c-15.7,0-30.9,2.9-45,8.2c-10.3-31.1-33.1-58.1-65-73c-16.9-7.9-34.8-11.9-53.3-11.9
		c-48.1,0-92.4,27.8-113.1,70.9c-5,10.3-8.4,21.3-10.3,32.6c-19,88.8,53.7,231,74.4,269.1c-59.2,7.6-101.9-8.8-127.1-32.1
		c-6,9-14.6,16.1-24.7,20.5c26.2,25.6,67.8,45.2,123.4,45.2c14.6,0,30.1-1.3,46.5-4.3c10.7,13.6,46.8,56.6,102.1,90.5
		c47.8,29.3,97.3,44,147.1,44c49.2,0,104.7-13.6,143.6-44.3c54.8-43.1,91.9-108,103.4-176.3C835.5,691.2,823.6,635.7,800.4,583.8z
		 M345.5,799.4c-0.4-0.9-94.5-167.1-75.1-254.1c1.3-8.2,3.9-16.4,7.7-24.3c21.4-44.9,75.4-64,120.6-42.8
		c36.9,17.3,56.9,56.4,51.1,94.6c-0.4,3.3,3.6,5.2,5.8,2.7c26.2-28.5,69.4-37.9,106.3-20.7c25.1,11.8,43.6,35,49.5,61.8
		c6.4,29.1-3,59.3-21.9,82c-16.3,19.6-39.8,33.3-62.5,44.5c-23.2,11.5-47.5,20.6-72.1,28.6c-21.8,7-43.9,13.1-66.1,18.4
		c-13.1,3.1-26.3,6-39.5,8.5C348,798.9,346.6,799,345.5,799.4z"/>
	<path class="st3" d="M381.2,88.1l-10.8,35.2c-2.6,5.5-10.3,7.4-17.1,4.3l-21.6-9.9c-6.9-3.1-10.3-10.2-7.7-15.7l20.2-30.9
		c2-4.5,8.3-5.9,13.7-3.4l17.3,7.9C380.5,78.1,383.3,83.8,381.2,88.1z M294.7,198.2l33.3-16.3c5.1-3.4,5.8-11.2,1.5-17.4L316.2,145
		c-4.2-6.1-11.8-8.4-16.9-5l-27.5,24.7c-4,2.8-4.6,9-1.2,14l10.7,15.6C284.6,199.2,290.7,200.9,294.7,198.2z"/>
	<path class="st0" d="M512.7,391.6c0.6,0.1,1.2,0.3,1.8,0.6c-3.7,1-6.7,4.1-7.4,8.2l-0.8,5.1l-1.1,6.3c-0.4,2.5,0.1,4.9,1.4,7
		c-18.1-2-59.1-9-118.2-34.8c-91.1-39.6-150.2-101-159.4-138.5c-9-36.7,25-63.7,38.7-72.9c0.2-0.2,0.5-0.3,0.7-0.4
		c0.1,2.2,0.8,4.4,2.2,6.5l10.7,15.6c1.2,1.8,2.9,3.2,4.6,4.1c-0.4,0.5-0.9,1-1.5,1.4c-9,6.4-28.4,22-24.4,38.4
		c6.2,25.1,55.3,79.6,141.1,116.9C460.5,380.8,499.4,389.2,512.7,391.6z M581.7,149.6C527.6,66.9,456.9,19,418,16
		c-37.9-2.9-59.5,34.6-66.5,49.5c-0.2,0.3-0.3,0.7-0.4,1c2.1-0.2,4.4,0.1,6.6,1.1l17.3,7.9c2,0.9,3.6,2.3,4.8,3.9
		c0.5-0.5,1-1.1,1.3-1.7c4.8-9.8,17.3-31.2,34.3-29.9c26,2.1,88.2,41.3,139.2,119.2c35.3,53.8,49.9,90.6,54.4,103.1
		c0.3,0.8,0.8,1.6,1.4,2.2c0.9-2.8,3-5.3,6.1-6.5l10.7-4.2c2.9-1.1,6.1-0.9,8.6,0.5C631.8,246.2,618.6,206.1,581.7,149.6z"/>
	<path d="M345.1,549.2c-8.6,6.3-18.1,1.1-23.4-6.4c-3.5-5-5.3-10.9-5.4-16.8c-0.2-8.8,2.3-20.4,12.2-23.9c6.8-2.3,13.9,1.5,18,6.5
		c4.7,5.8,6.1,12.5,6.8,19.5C354.1,535.6,351.6,544.4,345.1,549.2z M380.2,555.1c18.3-4.6,27.1-32.4,14.3-45.7
		c-4.3-4.5-10.6-5.8-16.5-3.3c-9.3,3.9-13.8,14.3-15.8,22.9c-2.3,9.8,1.4,22.9,12.7,25.8C376.6,555.2,378.5,555.2,380.2,555.1z
		 M300.1,540.1c-9.5-0.1-15.1,9.5-14.9,17.8c-0.3,12.5,8.3,27.6,22.3,28.6c10.1,0.2,15.8-10.8,14.5-19.6
		C321.5,555.2,313.1,542,300.1,540.1z M401.2,604.9c-5.4-9.7-17.6-9.6-23.7-18.3c-7.2-9.9-6.8-24.3-21.3-25.4
		c-20.5-0.8-18.3,25.2-35,30.8c-7.7,2.4-13.3,4.1-16.5,12.4c-2.7,7.2-2.2,15.1,2,21.5c2,2.7,4.1,5.1,7.2,6.6
		c11.5,6.3,18.9-2.5,29.8-5.4c14.9-4,21.7,5,34,9.8C395.6,643.9,409.4,620.7,401.2,604.9z M427.4,557.7c-1.2-5.7-6.6-9.3-12.1-9.6
		c-2.3,0.1-4.6,0.2-6.6,1.3c-12.6,4.8-21.1,19.4-18.2,32.3c1.2,6,6.8,11.4,13.6,10.8C420.3,590.5,431.3,572.4,427.4,557.7z"/>
	<path class="st4" d="M489.8,681.3c0.7-0.4,1.3-0.9,1.8-1.5c1.5-1.8,2-4.2,1.2-6.4c-0.1-0.3-0.3-0.6-0.4-0.9
		c-1.6-2.9-5.2-4.1-8.2-2.9c2.7-1.9,3.5-5.5,1.9-8.5c-1.7-3.2-5.7-4.3-8.9-2.6c-0.6,0.3-1.1,0.7-1.5,1.1c-4.9,4.3-6.5,18.1-6.5,18.1
		c1.3,0.5,2.5,1.1,3.7,1.6c2.6,1,5.3,1.9,8.1,2.5C483.9,682.4,487.3,682.7,489.8,681.3z"/>
	<path d="M521.2,603.9c-0.8,0.1-2.2,0-3.2,0.3c5-3.6,11.5-4.9,17.5-5.8c0,0-1.9-2.4-2.6-2.6c7-3.3,18.3,2.6,19.7,12.4
		c0.8,5.7-5,19.7-11.8,20.7c2.3,0.2,5.5-1.7,7.5-2.9c0.2,1.6-10.3,9-15.9,11.4c1.4-0.1,3.6-0.2,4.8-0.3c-8,3.9-20.4,1.2-26.6,5.1
		c-4.9-8-10-18.3-4.8-27.3c-0.1,0.9,0.1,2,0.2,2.8C508.5,610.6,514.4,606.9,521.2,603.9z M478.2,630.8c0,0,4.5-0.6,6.9-4.1
		c-1.3,0.3-2.5,0.3-3.8,0.7c11.6-10.9,30.3-11.7,32.6-31.5c-1.7,2.2-3.6,4.1-5.9,5.8c1.7-3.1,8.6-18.9,3.8-21.3
		c-0.1,1.5-0.1,2.5-2.4,4.1c0.9-2-3-13.5-11.6-13.8c0.7,0.8,1.6,1.7,2.3,2.5c0.2,1-7.2,3.4-9.1,4.2c-0.2,0.1-0.9-0.3-0.8-0.7
		c0.1-0.3,0.1-0.9,0.5-1.6c-8.2,5.6-15.3,12.6-19.9,21.4c-0.1-1.6-0.5-3.7-0.3-5.4C464.3,599.9,458.3,628.4,478.2,630.8z M530.5,650
		c-3,4.1-4.7,9.1-6.7,13.7c5.2-1,4.7,2.9,9.1,4.8c9.2,4,18.6,3.1,27.9-1.2c-2-0.3-4-1.3-5.6-1.9c10.1-1.3,20.1-7.1,21.7-17.5
		c0.6,1.2,1.4,2.2,1.8,3.3c2.7-8.4-5.7-13.8-13-16.4c-0.2-0.1,4-1.2,5.5-1.3c-15.6-6.6-35.4,3.1-44.3,17.1
		C528,650.4,529.4,650.4,530.5,650z M505.9,690.2c0,0,0,0,0.2,0.1c0.7-0.3,1.6-0.6,2.3-1c-5.7,5.9-3,15.1-8.2,21.6
		c-7.2,8.9-18.3,8.8-26.6,2.6c-0.5-0.4-1.3-0.6-1.8-1c1.1,0.2,2.4-0.2,3.5,0c-2-1.6-4.3-4-6.2-5.4c1.5,0.7,3.7,1.2,4.9,1.8
		c-7.3-6.7-32.6-10.7-27.8-25.2c0.9,2.6,0.7,3.1,2.6,6.7c-1.3-8.8,0.6-17.7,0-26.4c-1.7,2-4.9,3.4-6.3,5.3c5.9-10.3-8.9-23.8,8-28.4
		c0-0.4-1.2-0.6-1.2-1c0.8-0.7,2.1-0.3,3-0.7c-0.9-0.3-1.8-0.6-2.6-1.1c7.6-4.4,16.9-3.5,25.2-2.5c-0.9-1.5-0.6-2.9-0.3-2.6
		c0.1,0.2,0.4,0.5,0.9,0.7c5.4,2.4,13.8-3.2,19.7-1.4c10.2,2.8,9.3,14.2,17.1,18.7c6.7,3.8,8.4,9.2,8.5,11.2
		c0.1,0.8,0.1,1.4,0.2,2.2C523.2,676.3,512.4,681.7,505.9,690.2z M492.9,673.4c-0.1-0.3-0.3-0.6-0.4-0.9c-1.6-2.9-5.2-4.1-8.2-2.9
		c2.7-1.9,3.5-5.5,1.9-8.5c-1.7-3.2-5.7-4.3-8.9-2.6c-0.6,0.3-1.1,0.7-1.5,1.1c-4.9,4.3-6.5,18.1-6.5,18.1c1.3,0.5,2.5,1.1,3.7,1.6
		c2.6,1,5.3,1.9,8.1,2.5c2.9,0.6,6.2,0.9,8.8-0.6c0.7-0.4,1.3-0.9,1.8-1.5C493.2,678,493.7,675.5,492.9,673.4z M568.1,690.2
		c-0.7,0.3-1.1,1-1.8,1.3c-0.1-12.3-17-21.4-29.5-16.9c-0.9,0.3-1.8,0.8-2.7,1.6c-0.5,0.4-1.3,0.9-1.3,0.9s2.1,0.1,4.8,0.4
		c-6.3,0.2-26.1,4.7-22.7,13.6c0.2-0.5-0.1-1.6,0.4-2.2c2.1,4.8-0.6,9.1-5.9,10.5c3.2,6.7,10.8,14.9,19,13.7
		c-0.9-1.3-1.4-2.8-2.3-4.1c1.5,0.9,2.9,1.8,4.2,2.7c-0.7-0.8-1.3-1.8-2-2.6c6.3,4,12.6,3.2,19.2,0.6c-2.6-0.5-5.7-1.7-8.2-2.5
		c8.1,2.1,18.3-1.5,24.6-6.7c-0.6,0-1.3-0.1-2-0.3C565.5,698.3,568,694.4,568.1,690.2z"/>
</g>
</svg>
